<?xml version="1.0" standalone="no"?>
<!DOCTYPE svg PUBLIC "-//W3C//DTD SVG 20010904//EN"
 "http://www.w3.org/TR/2001/REC-SVG-20010904/DTD/svg10.dtd">
<svg version="1.0" xmlns="http://www.w3.org/2000/svg"
 width="512.000000pt" height="512.000000pt" viewBox="0 0 512.000000 512.000000"
 preserveAspectRatio="xMidYMid meet">
<metadata>
Created by potrace 1.14, written by Peter Selinger 2001-2017
</metadata>
<g transform="translate(0.000000,512.000000) scale(0.100000,-0.100000)"
fill="#000000" stroke="none">
<path d="M2374 4739 c-5 -8 -3 -9 6 -4 9 5 11 4 6 -4 -6 -9 -11 -9 -22 0 -11
9 -14 8 -14 -2 0 -9 -3 -10 -11 -2 -13 13 -59 5 -59 -11 0 -6 -5 -4 -11 4 -8
12 -12 12 -16 2 -4 -10 -8 -10 -21 0 -12 10 -14 10 -8 1 4 -7 3 -13 -1 -13 -5
0 -15 6 -22 13 -11 10 -13 9 -8 -4 4 -13 0 -15 -20 -11 -20 4 -24 2 -18 -8 6
-10 4 -11 -6 -4 -19 12 -39 14 -39 4 0 -4 -10 -7 -22 -7 -47 -1 -59 -3 -54
-11 3 -5 -1 -9 -9 -9 -8 0 -12 4 -10 8 3 4 -4 5 -15 2 -11 -3 -20 -8 -20 -12
0 -4 -14 -6 -30 -5 -17 1 -33 -3 -37 -9 -3 -5 -1 -7 5 -3 6 3 13 2 16 -3 7
-11 -13 -9 -31 2 -8 5 -13 3 -13 -4 0 -7 -3 -9 -7 -6 -3 4 -13 1 -21 -6 -13
-10 -14 -9 -7 3 8 13 6 13 -8 2 -9 -8 -21 -11 -26 -8 -5 4 -12 2 -16 -4 -4 -6
-11 -7 -17 -4 -6 4 -8 2 -5 -3 4 -6 0 -14 -9 -17 -8 -3 -13 -2 -9 3 10 17 -28
5 -40 -13 -10 -13 -14 -14 -18 -4 -3 8 -6 5 -6 -7 -1 -17 -3 -17 -11 -5 -7 11
-10 11 -10 2 0 -7 -3 -11 -8 -8 -12 7 -83 -29 -75 -39 5 -5 0 -3 -9 4 -10 7
-18 10 -18 5 0 -10 -47 -34 -67 -34 -8 0 -16 -7 -19 -15 -4 -8 -11 -12 -16 -9
-6 4 -14 1 -18 -5 -4 -7 -16 -13 -28 -14 -17 -1 -19 -4 -9 -16 10 -12 9 -13
-10 -3 -18 10 -24 9 -36 -8 -7 -11 -17 -17 -20 -13 -4 3 -7 0 -7 -7 0 -7 -3
-10 -7 -7 -3 4 -12 -1 -20 -11 -10 -11 -12 -12 -8 -2 4 10 2 9 -8 -2 -8 -10
-19 -18 -26 -18 -6 0 -11 -5 -11 -12 0 -6 -3 -8 -6 -5 -4 4 -15 -3 -25 -15
-12 -12 -19 -16 -19 -8 0 7 -10 1 -23 -13 -12 -15 -31 -27 -40 -27 -10 0 -16
-4 -12 -9 5 -10 -33 -27 -49 -22 -5 1 -3 -6 5 -15 12 -15 12 -17 0 -9 -9 5
-19 2 -28 -11 -8 -10 -16 -18 -18 -16 -10 5 -25 2 -22 -5 1 -5 -2 -10 -8 -13
-5 -2 -22 -17 -37 -32 -14 -14 -29 -24 -32 -21 -3 3 -8 -2 -12 -11 -3 -9 -12
-16 -20 -16 -13 0 -19 -13 -15 -33 1 -5 -2 -6 -6 -4 -13 8 -46 -20 -38 -32 4
-7 0 -8 -11 -4 -13 5 -15 3 -9 -7 6 -10 4 -12 -8 -7 -12 4 -14 2 -10 -10 4 -9
2 -14 -3 -11 -10 6 -36 -17 -28 -25 9 -8 -48 -47 -59 -40 -6 3 -7 1 -3 -6 8
-13 -42 -68 -57 -63 -5 1 -6 -2 -2 -8 3 -5 -10 -25 -29 -43 -27 -27 -32 -37
-23 -46 9 -9 8 -11 -7 -5 -13 5 -17 4 -12 -4 4 -7 -3 -17 -19 -24 -18 -8 -22
-14 -13 -19 9 -6 5 -11 -12 -18 -14 -5 -19 -10 -12 -10 7 -1 -1 -15 -18 -32
-16 -18 -30 -37 -30 -43 0 -6 -9 -17 -19 -23 -11 -7 -21 -23 -23 -35 -2 -13
-9 -22 -17 -20 -12 3 -12 0 -1 -12 12 -15 7 -21 -14 -17 -5 1 -3 -5 4 -14 11
-13 10 -15 -4 -9 -11 4 -16 2 -14 -7 2 -8 -3 -13 -11 -11 -12 3 -12 1 0 -14 9
-12 9 -15 2 -10 -11 6 -15 1 -12 -20 0 -3 -8 -12 -18 -21 -10 -8 -11 -11 -3
-7 8 4 4 -4 -9 -19 -12 -14 -20 -30 -16 -36 3 -6 1 -11 -5 -11 -6 0 -8 -4 -5
-10 3 -5 1 -10 -5 -10 -6 0 -8 -4 -5 -10 3 -5 1 -10 -4 -10 -6 0 -11 -9 -11
-21 0 -11 -4 -18 -9 -15 -5 4 -7 -4 -3 -16 3 -14 2 -19 -6 -14 -8 5 -12 -2
-12 -19 0 -15 -4 -24 -10 -20 -6 4 -7 -1 -3 -11 4 -12 3 -15 -5 -10 -8 5 -10
2 -6 -9 4 -8 1 -21 -5 -29 -6 -7 -8 -16 -4 -19 3 -4 1 -7 -7 -7 -10 0 -10 -3
0 -15 11 -13 10 -14 -4 -9 -14 5 -16 2 -12 -20 3 -15 1 -24 -4 -21 -11 7 -20
-19 -15 -45 3 -15 0 -20 -8 -17 -7 3 -13 -3 -13 -13 0 -10 5 -16 11 -12 5 3 4
-2 -3 -11 -8 -9 -11 -21 -7 -27 3 -5 -2 -10 -12 -11 -11 0 -13 -3 -5 -6 10 -4
10 -8 1 -19 -9 -11 -9 -14 0 -14 8 0 7 -5 -3 -15 -8 -8 -13 -24 -11 -34 2 -11
-3 -22 -12 -25 -12 -5 -13 -9 -3 -21 11 -13 10 -18 -6 -31 -10 -9 -13 -13 -6
-9 15 8 16 -7 0 -23 -9 -9 -9 -12 2 -12 11 0 11 -3 2 -12 -16 -16 -15 -31 0
-23 7 4 6 1 -3 -7 -8 -7 -18 -22 -22 -32 -7 -17 -6 -17 9 -5 16 13 16 12 5 -8
-6 -13 -8 -23 -4 -23 4 0 2 -5 -5 -12 -8 -8 -8 -17 -1 -31 8 -14 8 -17 0 -13
-7 5 -10 -3 -7 -23 2 -17 1 -31 -3 -31 -3 0 -5 -20 -4 -45 1 -33 -2 -43 -10
-38 -8 4 -8 1 1 -9 10 -13 10 -17 0 -21 -10 -4 -10 -6 1 -6 11 -1 11 -4 1 -16
-10 -12 -10 -15 0 -15 9 0 9 -4 -1 -17 -12 -15 -12 -16 1 -8 13 8 13 7 1 -8
-11 -14 -11 -17 0 -17 11 0 11 -2 -1 -10 -11 -7 -11 -10 -2 -10 10 0 10 -5 2
-20 -8 -15 -8 -20 2 -20 9 0 9 -3 -2 -10 -13 -9 -13 -10 0 -10 13 0 13 -1 0
-10 -11 -7 -11 -10 -2 -10 8 0 10 -5 5 -12 -11 -19 -12 -37 -2 -44 14 -8 11
-26 -3 -18 -10 6 -11 4 0 -7 16 -17 16 -42 -1 -34 -6 4 -4 0 6 -8 19 -16 24
-32 6 -21 -8 4 -8 0 0 -15 7 -11 8 -21 4 -21 -4 0 -2 -5 5 -12 7 -7 8 -17 1
-30 -7 -12 -6 -18 1 -18 6 0 8 -5 5 -10 -4 -6 -1 -18 7 -27 11 -15 11 -16 -6
-10 -16 6 -17 5 -7 -7 7 -8 10 -20 6 -25 -3 -6 0 -9 7 -6 9 4 13 -3 13 -20 0
-14 -4 -25 -8 -25 -5 0 -1 -7 8 -16 13 -14 14 -19 3 -26 -9 -7 -10 -11 -2 -14
7 -3 10 -14 7 -24 -4 -15 0 -20 13 -21 11 0 14 -3 7 -5 -13 -6 -6 -35 11 -46
8 -6 8 -8 0 -8 -6 0 -11 -7 -11 -15 0 -8 5 -11 10 -8 6 4 8 0 4 -10 -4 -12 -1
-17 10 -17 15 0 15 -1 -1 -13 -16 -12 -16 -14 -2 -26 9 -7 13 -17 10 -22 -3
-5 0 -9 5 -9 13 0 10 -22 -4 -33 -6 -5 0 -6 14 -3 17 3 21 2 13 -6 -8 -8 -5
-22 9 -49 18 -35 18 -38 2 -33 -10 3 -7 -2 7 -10 14 -8 19 -15 12 -16 -10 0
-9 -4 2 -16 9 -8 14 -20 11 -25 -4 -5 -1 -9 5 -9 6 0 8 -4 5 -10 -3 -5 1 -10
10 -10 9 0 13 -5 10 -10 -4 -6 -10 -8 -15 -5 -4 3 -3 -6 3 -19 7 -13 15 -22
19 -20 7 4 24 -54 20 -69 -2 -5 2 -6 7 -3 8 5 35 -46 36 -69 1 -5 7 -9 14 -7
8 2 10 -4 6 -18 -5 -15 -2 -20 12 -20 14 0 15 -2 5 -9 -10 -6 -8 -10 8 -14 14
-3 19 -10 15 -17 -4 -7 -4 -15 1 -19 16 -11 35 -52 29 -61 -4 -6 1 -7 11 -3
12 4 15 3 10 -5 -8 -13 17 -56 26 -47 3 3 8 -1 12 -10 3 -10 2 -14 -5 -9 -6 3
-5 -3 2 -14 7 -12 16 -19 20 -16 4 2 10 -5 14 -16 3 -11 11 -20 16 -20 5 0 8
-3 8 -7 -3 -21 3 -33 17 -33 8 0 12 -5 9 -10 -3 -6 2 -10 12 -10 15 0 16 -2 3
-10 -13 -8 -13 -10 2 -10 9 0 20 -9 23 -20 4 -11 11 -18 16 -15 5 4 9 -4 9
-15 0 -15 5 -20 14 -17 10 4 14 0 11 -14 -4 -17 6 -24 28 -20 5 1 6 -3 3 -8
-3 -5 1 -11 9 -15 8 -3 15 -12 15 -20 0 -7 7 -16 15 -20 8 -3 15 -13 15 -22 0
-14 2 -15 17 -3 13 11 15 11 9 1 -9 -15 27 -56 38 -44 4 3 4 -2 0 -12 -5 -14
-4 -17 4 -12 7 4 12 2 12 -4 0 -6 4 -8 10 -5 6 3 10 -4 10 -17 0 -17 3 -19 9
-9 7 11 10 9 16 -9 5 -15 13 -20 25 -17 12 3 17 0 14 -7 -3 -7 6 -21 18 -32
18 -15 20 -16 9 -1 -12 15 -12 17 3 11 14 -6 21 4 17 28 0 4 -2 22 -3 40 -1
18 -7 36 -13 40 -6 5 -2 8 8 8 10 0 16 4 12 9 -3 5 -1 12 5 16 7 4 6 13 -1 27
-8 15 -8 19 0 14 11 -7 15 6 12 33 -2 7 2 10 7 7 6 -4 8 3 4 16 -3 14 -2 19 6
14 15 -9 15 -1 1 26 -6 12 -7 18 -1 14 11 -7 25 21 16 35 -3 5 0 9 6 9 7 0 7
7 -1 23 -12 21 -11 21 6 7 10 -8 16 -10 12 -3 -5 7 0 24 9 38 9 14 13 25 8 25
-5 0 1 7 12 15 15 10 20 22 17 40 -3 14 1 33 8 42 12 14 12 16 0 9 -9 -6 -12
-5 -9 5 3 8 11 13 18 11 11 -3 11 0 0 12 -10 13 -10 16 1 16 11 0 11 2 -1 10
-12 8 -12 10 -1 10 11 0 11 3 1 15 -10 12 -9 15 5 15 12 0 15 4 8 13 -5 6 -8
18 -7 25 1 6 2 17 3 22 0 6 6 10 12 10 8 0 7 -6 -2 -17 -13 -16 -12 -17 3 -5
9 7 15 24 13 37 -1 15 3 25 11 25 7 0 18 13 25 29 7 16 18 27 24 23 5 -3 4 2
-4 11 -11 14 -11 17 0 17 12 0 12 2 1 9 -11 7 -11 9 2 14 13 5 14 12 6 32 -13
33 -13 38 1 29 8 -4 9 1 4 16 -5 15 -4 20 4 16 6 -4 11 -3 11 3 0 5 -6 12 -12
14 -8 3 -6 6 4 6 12 1 15 6 11 18 -5 12 -3 14 7 8 9 -6 11 -4 5 6 -12 18 -14
49 -3 43 5 -3 7 6 4 20 -3 19 -1 23 11 19 13 -5 13 -2 5 14 -8 14 -8 23 0 31
9 9 9 12 -2 12 -10 0 -11 3 -3 11 6 6 9 18 6 27 -4 10 -2 13 5 8 8 -5 10 -2 6
9 -4 10 3 23 20 36 14 11 24 25 20 30 -3 5 0 8 8 7 8 -2 13 6 12 20 -1 12 4
22 10 22 6 0 4 5 -4 10 -10 6 -11 10 -2 10 6 0 12 9 12 21 0 11 4 18 9 15 4
-3 8 7 7 22 0 17 4 26 13 24 8 -1 10 2 5 10 -13 21 -12 49 1 38 8 -7 10 -1 7
20 -3 18 -9 28 -16 24 -6 -3 -2 2 8 10 11 9 16 16 12 16 -5 0 -4 6 3 13 8 10
7 17 -2 27 -10 10 -9 11 2 5 11 -6 13 -4 8 8 -3 10 -3 17 2 17 5 0 7 11 6 25
-2 13 3 29 11 36 7 6 11 16 7 22 -4 6 -1 7 7 2 10 -6 12 -4 7 9 -5 13 -3 17 6
13 8 -3 14 1 14 9 0 8 -5 14 -10 14 -6 0 0 9 13 20 15 13 18 20 9 20 -12 0
-12 2 0 9 7 5 10 14 7 20 -4 6 0 11 11 12 11 0 13 3 5 6 -6 2 -9 10 -5 16 6
10 10 26 15 65 1 6 5 12 9 12 13 0 18 29 7 36 -7 5 -8 2 -3 -6 6 -9 4 -11 -5
-5 -10 6 -7 12 11 26 17 13 19 19 9 19 -9 0 -11 3 -5 8 14 10 17 32 4 32 -8 0
-8 4 0 13 8 10 7 17 -2 26 -9 10 -8 11 7 5 13 -5 17 -4 12 4 -4 7 -2 12 6 12
9 0 9 3 -2 10 -14 9 -13 11 9 14 5 0 13 5 18 10 5 5 3 6 -4 2 -17 -9 -17 6 -1
22 10 10 10 15 -2 22 -12 8 -12 10 4 16 14 5 15 9 4 15 -10 7 -11 9 0 9 7 0
10 5 6 11 -3 6 -1 15 5 19 9 5 8 12 -6 25 -17 18 -17 18 5 13 19 -5 21 -4 11
8 -9 11 -9 14 1 14 10 0 10 3 0 15 -10 12 -10 15 0 15 9 0 9 4 -1 17 -8 9 -9
14 -3 10 13 -8 26 26 15 40 -3 4 -5 7 -2 6 8 -5 32 28 34 46 0 11 5 17 11 14
5 -4 7 1 3 11 -4 10 -3 15 3 11 6 -3 10 -1 10 5 0 6 4 9 9 6 5 -3 12 1 15 10
3 8 2 13 -3 9 -5 -3 -1 13 10 35 11 22 25 40 32 40 8 0 7 4 -3 10 -12 8 -12
10 3 16 9 3 15 9 12 13 -2 4 2 8 10 8 8 0 13 -3 10 -5 -3 -3 0 -11 6 -19 9
-10 8 -13 -2 -13 -11 0 -11 -2 1 -10 13 -9 13 -10 0 -10 -9 0 -11 -3 -5 -8 17
-12 41 -47 28 -38 -8 4 -13 2 -13 -4 0 -6 -5 -8 -11 -4 -6 3 -3 -6 7 -22 23
-37 29 -43 21 -23 -4 11 0 16 11 15 13 -1 17 7 16 31 0 28 2 31 15 21 9 -7 13
-8 9 -4 -4 5 -3 15 2 22 6 6 10 16 9 20 -3 21 2 35 11 29 6 -3 10 -2 10 4 0 5
-6 12 -12 14 -10 4 -10 6 0 6 7 1 10 5 7 11 -3 5 0 7 9 4 10 -4 14 0 12 13 -2
10 4 24 13 31 13 11 13 12 1 7 -10 -4 -10 -2 2 8 12 9 14 17 7 24 -7 7 -4 14
8 24 17 13 17 13 3 -6 -14 -19 -14 -19 3 -6 13 10 15 17 6 27 -9 11 -8 14 0
14 7 0 9 5 6 10 -3 6 -1 10 6 10 7 0 9 3 6 6 -3 4 5 16 19 26 19 16 22 23 13
34 -9 11 -8 15 5 20 9 3 13 10 10 15 -3 5 2 18 10 30 8 12 12 28 9 37 -5 11
-2 14 10 9 12 -4 15 -1 12 14 -2 10 2 19 8 19 7 0 6 4 -3 10 -13 9 -13 10 0
10 13 0 13 1 0 10 -13 8 -12 10 3 10 10 0 16 4 13 9 -3 5 0 20 7 34 12 23 14
24 32 10 16 -13 16 -14 3 -10 -15 5 -16 2 -7 -20 5 -14 7 -28 4 -31 -2 -3 0
-11 5 -17 6 -7 11 -24 12 -39 1 -14 7 -26 13 -26 6 0 7 -3 0 -8 -15 -11 -17
-32 -3 -32 9 0 9 -3 0 -12 -17 -17 -15 -28 4 -28 8 0 13 -4 9 -9 -3 -5 -1 -13
5 -16 8 -5 7 -11 -1 -21 -9 -11 -8 -14 2 -14 12 0 12 -2 0 -9 -11 -7 -11 -9 0
-14 12 -5 12 -7 0 -15 -11 -8 -11 -10 0 -14 12 -4 11 -8 -1 -23 -13 -17 -13
-18 1 -13 12 5 15 -1 12 -33 -2 -24 1 -39 8 -39 8 0 7 -5 -2 -16 -10 -12 -10
-17 0 -23 6 -4 13 -18 14 -30 l1 -23 21 24 c17 20 23 22 34 11 6 -7 9 -18 6
-23 -4 -6 1 -13 10 -16 12 -5 13 -9 5 -14 -8 -5 -7 -12 4 -23 11 -10 12 -18 6
-22 -8 -5 -8 -11 -1 -19 7 -9 7 -17 -2 -26 -10 -10 -9 -12 4 -7 12 4 15 1 12
-12 -2 -10 3 -25 12 -35 10 -10 12 -16 4 -16 -9 0 -9 -3 1 -15 6 -8 9 -19 6
-24 -4 -5 -2 -12 4 -16 6 -4 6 -13 0 -25 -6 -11 -15 -29 -21 -41 -6 -12 -6
-18 -1 -15 5 3 12 -5 14 -19 3 -13 1 -22 -3 -19 -14 8 -11 -20 4 -35 10 -11 9
-12 -1 -7 -9 6 -11 1 -8 -18 3 -14 8 -31 12 -37 4 -8 3 -9 -4 -5 -19 11 -14
-5 6 -21 12 -11 13 -13 2 -10 -12 4 -15 -6 -15 -49 0 -29 2 -52 5 -52 17 1 21
-4 11 -16 -9 -10 -9 -16 -1 -21 8 -5 6 -15 -5 -32 -10 -14 -12 -22 -6 -19 6 4
11 0 11 -9 0 -9 -5 -13 -11 -9 -7 4 -7 -1 1 -16 11 -21 10 -22 -6 -16 -16 6
-16 5 2 -15 10 -12 13 -19 6 -15 -10 6 -11 1 -6 -19 4 -18 2 -30 -7 -36 -8 -5
-9 -9 -3 -9 6 0 10 -14 9 -32 -2 -18 -4 -33 -5 -33 -1 0 -3 -17 -4 -37 -1 -20
2 -35 6 -32 4 3 8 -3 8 -13 0 -10 4 -14 8 -8 9 13 35 13 44 1 3 -5 16 -11 29
-13 19 -3 20 -1 9 12 -11 14 -10 14 12 6 14 -5 30 -7 34 -3 5 4 2 -2 -6 -12
-14 -18 -14 -19 8 -7 12 7 20 17 17 24 -4 7 1 3 9 -7 9 -11 16 -15 16 -10 0 5
9 10 20 10 11 0 20 -4 20 -8 0 -4 5 -8 11 -8 5 0 8 4 5 9 -4 5 2 8 11 6 10 -1
17 -7 16 -12 -1 -5 7 -9 17 -9 14 0 16 4 9 12 -8 9 -4 11 13 7 18 -4 20 -3 8
6 -11 8 -12 11 -2 11 10 0 10 4 -2 15 -8 9 -19 15 -23 14 -19 -3 -34 2 -29 10
4 5 3 11 -1 14 -5 2 -2 2 6 0 8 -2 11 2 7 12 -6 17 9 21 19 5 12 -19 26 0 15
20 -9 16 -8 18 6 13 11 -4 15 -2 11 4 -4 6 0 14 9 17 8 3 12 2 9 -4 -3 -6 -1
-10 5 -10 6 0 8 -4 5 -10 -3 -5 -1 -10 4 -10 6 0 11 -6 11 -14 0 -8 9 -12 24
-11 19 2 23 -1 19 -13 -5 -11 -3 -13 7 -7 9 6 11 4 6 -4 -5 -7 -10 -10 -13 -7
-10 10 -43 -15 -43 -32 0 -14 -2 -15 -10 -2 -7 12 -9 11 -8 -6 2 -15 8 -20 25
-19 12 0 25 4 29 8 12 12 24 8 24 -9 0 -9 5 -12 12 -8 8 5 9 2 4 -11 -5 -15
-4 -16 9 -5 8 7 13 16 10 20 -3 5 0 12 6 16 7 4 9 3 6 -3 -9 -15 23 -26 38
-13 6 5 15 7 19 3 4 -4 11 -1 16 7 6 8 10 10 10 4 0 -6 7 -11 15 -11 9 0 14 6
11 14 -3 7 0 13 6 13 6 0 5 6 -3 17 -12 15 -12 16 5 10 16 -6 17 -5 6 8 -7 8
-10 24 -7 34 3 11 -1 29 -9 39 -13 18 -12 20 9 15 22 -5 22 -5 2 11 -11 10
-14 15 -7 11 17 -9 15 0 -4 19 -8 9 -11 16 -6 16 12 0 10 26 -3 37 -4 4 -5 2
0 -6 6 -10 4 -12 -5 -6 -10 6 -9 11 5 22 11 7 14 13 8 13 -15 0 -23 38 -9 44
7 3 7 5 -1 5 -7 1 -13 6 -13 12 0 5 4 7 10 4 6 -3 7 1 4 9 -3 9 -10 16 -15 16
-5 0 -9 5 -9 11 0 5 4 8 8 5 11 -6 9 25 -3 43 -5 9 -4 12 3 7 6 -3 13 -2 17 4
3 5 1 10 -4 10 -6 0 -11 5 -11 11 0 5 6 7 13 3 7 -5 6 0 -3 11 -14 17 -13 18
4 12 15 -6 17 -5 8 6 -9 10 -8 17 1 27 8 8 8 11 0 6 -7 -4 -9 1 -6 14 3 11 10
20 15 20 5 0 6 5 3 10 -4 6 -12 8 -18 4 -7 -3 -3 2 7 10 11 9 17 19 13 22 -4
4 -1 14 6 22 10 13 9 14 -3 7 -13 -8 -13 -7 -1 8 7 9 10 17 5 17 -4 0 1 7 12
16 10 8 13 13 7 9 -7 -3 -13 0 -13 7 0 8 6 20 13 27 10 11 9 12 -2 6 -11 -6
-13 -4 -8 8 4 10 0 17 -11 20 -15 4 -15 5 1 6 15 1 16 5 7 21 -7 13 -7 20 -1
20 6 0 7 7 4 17 -4 10 -2 14 4 10 5 -3 10 0 10 8 0 8 -4 12 -8 9 -4 -2 -11 1
-15 7 -4 7 -3 9 2 6 6 -3 16 -2 24 4 12 7 11 9 -4 9 -18 0 -18 1 -3 18 11 12
13 22 6 35 -7 12 -7 17 1 17 6 0 8 5 5 10 -3 6 0 10 7 11 7 0 4 4 -7 9 -19 8
-19 9 -1 9 11 1 16 4 13 8 -4 3 1 12 11 20 11 10 12 12 2 8 -8 -4 -4 3 10 15
14 12 18 18 10 14 -13 -7 -13 -5 -1 9 11 14 11 17 0 17 -11 0 -11 2 1 10 12 8
13 12 2 19 -11 7 -10 9 3 15 9 3 13 10 10 16 -3 5 0 10 7 10 9 0 9 3 -2 10 -9
6 -11 13 -5 18 16 12 14 42 -3 42 -13 0 -12 3 4 16 10 8 13 13 7 9 -16 -7 -17
11 -3 20 8 5 8 11 1 19 -6 7 -8 16 -4 20 4 4 9 19 10 34 3 21 1 24 -7 12 -5
-8 -10 -10 -10 -5 0 6 5 16 12 23 7 7 11 31 9 54 -3 57 31 79 57 37 11 -17 11
-20 0 -14 -7 3 -3 -2 10 -13 20 -19 21 -21 5 -25 -13 -3 -14 -5 -3 -6 8 -1 20
-12 27 -26 8 -19 8 -23 0 -19 -7 4 -2 -3 11 -15 23 -22 30 -37 12 -26 -6 3 -7
-1 -4 -9 3 -9 10 -16 16 -16 5 0 7 -4 3 -9 -3 -5 -1 -12 5 -16 6 -4 7 -11 4
-17 -4 -7 -2 -8 4 -4 8 5 12 -1 12 -14 0 -16 4 -20 15 -16 13 4 14 2 5 -14 -8
-14 -8 -20 0 -20 6 0 8 -4 5 -10 -3 -5 0 -10 7 -10 8 0 19 -14 25 -30 9 -23 8
-28 0 -23 -8 5 -8 2 0 -9 7 -8 10 -17 7 -20 -3 -3 7 -15 22 -27 15 -11 22 -21
15 -21 -6 0 -2 -9 9 -20 12 -12 18 -25 15 -30 -4 -6 -1 -10 4 -10 6 0 11 -7
11 -15 0 -8 5 -15 11 -15 5 0 8 -4 5 -9 -3 -5 1 -12 9 -15 13 -5 14 -10 4 -27
-9 -17 -8 -20 2 -14 9 6 11 4 6 -8 -3 -9 0 -18 9 -21 8 -3 12 -1 9 4 -3 6 1 7
9 4 11 -4 16 0 16 12 0 16 2 17 10 4 8 -12 10 -11 7 5 -1 11 -6 26 -10 33 -5
7 -3 12 5 12 10 0 10 2 1 8 -7 5 -9 13 -3 21 4 8 6 21 2 29 -3 10 -1 13 6 8 7
-4 12 -2 12 5 0 7 9 2 19 -10 11 -13 17 -30 14 -38 -5 -12 -3 -14 7 -8 10 6
12 3 8 -13 -3 -12 -3 -21 1 -20 16 2 31 -3 30 -9 -3 -19 3 -32 26 -57 14 -15
25 -34 25 -42 0 -7 5 -14 11 -14 6 0 9 -9 6 -20 -3 -11 -1 -22 4 -25 4 -3 6
-12 2 -20 -3 -8 -1 -15 4 -15 5 0 15 -27 22 -60 8 -33 19 -60 25 -60 6 0 4 -5
-4 -10 -12 -8 -12 -10 -1 -10 11 0 11 -3 0 -17 -12 -14 -12 -16 0 -8 11 6 13
4 8 -8 -3 -9 -2 -19 4 -22 5 -4 6 -11 3 -17 -4 -6 -2 -8 3 -5 6 4 14 -4 17
-18 4 -16 11 -23 18 -19 7 5 8 3 3 -6 -4 -7 -2 -16 6 -21 11 -7 11 -9 1 -9 -7
0 -10 -5 -7 -10 4 -6 10 -8 15 -5 4 3 6 -5 2 -17 -4 -15 -2 -19 7 -13 10 6 11
3 2 -13 -8 -15 -8 -23 0 -28 6 -3 9 -14 6 -24 -4 -14 -1 -17 12 -12 13 5 14 3
3 -10 -10 -13 -10 -17 0 -21 10 -4 9 -6 -1 -6 -11 -1 -10 -5 5 -16 14 -11 16
-15 4 -15 -13 -1 -13 -2 0 -13 8 -7 17 -25 18 -42 2 -16 10 -34 18 -38 8 -5
12 -12 9 -18 -4 -5 -1 -9 4 -9 6 0 10 -3 10 -8 -3 -20 3 -32 17 -32 8 0 12 -5
9 -10 -3 -6 -1 -10 5 -10 6 0 9 -4 6 -8 -3 -5 1 -21 9 -36 8 -14 10 -24 5 -21
-6 3 -7 -1 -4 -9 3 -9 10 -13 15 -10 5 3 6 -2 3 -10 -4 -9 -1 -16 6 -16 10 0
10 -3 0 -15 -9 -10 -9 -15 -1 -15 6 0 10 -3 10 -7 -3 -20 2 -34 10 -29 10 7 9
-13 -2 -31 -4 -6 -3 -13 3 -15 6 -2 11 -17 13 -35 1 -17 6 -29 11 -25 5 3 7
-5 4 -16 -4 -12 -2 -20 2 -17 5 3 14 -3 20 -14 9 -18 8 -20 -7 -14 -16 5 -16
4 1 -9 10 -8 17 -19 14 -24 -7 -11 17 -35 26 -27 3 4 6 -1 6 -11 0 -11 5 -15
13 -10 6 4 9 4 5 -1 -4 -4 -2 -15 5 -23 9 -13 9 -14 0 -8 -9 5 -11 2 -7 -8 3
-9 11 -16 18 -16 6 0 4 -5 -4 -10 -12 -7 -12 -10 -1 -10 8 0 11 -6 7 -16 -4
-10 -2 -13 6 -8 8 5 9 2 5 -9 -3 -10 -2 -17 4 -17 6 0 6 -6 0 -19 -6 -10 -7
-21 -4 -25 13 -13 42 -99 37 -108 -3 -4 0 -8 7 -8 7 0 9 -3 6 -7 -4 -3 -1 -13
6 -21 9 -13 9 -14 0 -8 -7 4 -13 2 -13 -4 0 -6 7 -13 15 -16 8 -4 15 -10 15
-16 0 -5 -5 -6 -10 -3 -6 4 -2 -8 9 -26 11 -18 18 -36 15 -41 -3 -4 3 -8 13
-8 15 0 16 -2 3 -10 -13 -8 -13 -10 2 -10 12 0 15 -5 11 -17 -4 -11 -3 -14 6
-9 6 4 11 4 10 -1 -3 -20 2 -44 9 -39 7 4 12 -17 15 -61 0 -7 3 -13 7 -13 4 0
7 -7 7 -15 0 -8 -5 -15 -11 -15 -5 0 -1 -7 10 -16 10 -8 14 -13 7 -10 -7 4 -9
-1 -6 -14 3 -11 9 -20 14 -20 5 0 9 -9 9 -20 0 -11 5 -20 11 -20 5 0 8 -4 4
-9 -3 -5 6 -22 20 -37 23 -25 29 -38 26 -56 0 -5 5 -8 12 -8 8 0 7 -4 -3 -10
-13 -8 -13 -10 -1 -10 11 0 12 -3 4 -11 -8 -8 -5 -21 10 -48 17 -29 18 -33 4
-22 -15 12 -17 12 -11 -3 3 -9 10 -16 15 -16 5 0 9 -9 9 -20 0 -11 6 -20 13
-20 8 0 7 -4 -3 -10 -17 -11 -1 -13 24 -4 9 3 13 11 9 17 -4 6 0 8 11 4 11 -4
15 -3 11 4 -7 11 45 65 58 61 5 -1 6 2 2 8 -8 13 22 43 35 35 6 -4 7 1 3 11
-5 13 -3 15 8 9 11 -7 11 -5 -1 10 -14 17 -13 18 4 12 13 -5 17 -3 13 7 -3 8
2 16 15 19 11 3 17 10 13 16 -3 6 -1 11 5 11 6 0 15 11 22 25 6 13 15 22 21
18 5 -3 8 0 5 7 -2 8 4 22 14 32 10 10 16 23 13 28 -4 6 2 7 12 3 10 -3 15 -3
11 2 -4 4 -2 15 5 23 10 13 9 15 -3 8 -11 -6 -11 -4 1 6 9 7 19 23 23 35 4 11
19 33 34 49 15 15 20 24 12 20 -9 -5 -8 -2 2 7 10 8 15 17 11 20 -3 4 -1 7 5
7 6 0 17 14 26 30 9 19 10 28 3 23 -7 -3 -4 3 7 15 10 12 22 19 26 17 4 -2 6
9 4 25 -2 20 1 29 9 27 7 -1 11 8 11 21 -1 14 3 21 11 19 6 -3 12 1 12 9 0 7
-4 11 -8 8 -5 -3 -1 8 8 25 10 16 22 27 28 23 5 -3 4 1 -3 10 -10 13 -10 17 4
22 13 5 14 9 3 22 -10 12 -10 15 1 12 10 -2 14 6 14 24 -1 15 3 25 7 22 8 -5
11 3 8 22 0 4 5 11 13 15 10 7 10 9 1 9 -7 0 -13 5 -13 11 0 5 5 7 10 4 9 -6
14 8 11 29 -1 4 3 14 10 22 6 7 8 18 4 24 -3 5 2 10 12 10 14 0 15 2 4 9 -9 6
-10 11 -2 15 6 4 11 16 11 27 0 10 6 19 13 19 8 0 7 4 -3 11 -12 8 -12 12 -2
16 10 4 10 8 1 19 -9 11 -8 15 5 20 14 5 14 9 4 22 -10 12 -10 14 0 8 6 -4 12
-4 13 1 2 45 13 100 20 110 7 7 5 13 -3 16 -10 4 -10 6 1 6 11 1 11 4 0 18 -8
10 -9 14 -2 10 6 -4 14 -3 18 3 3 5 0 10 -7 10 -9 0 -10 2 -2 8 15 9 15 63 0
56 -6 -3 -2 2 8 10 20 16 20 16 0 32 -10 8 -14 13 -7 9 16 -7 24 27 20 78 -2
21 2 49 9 63 7 14 10 23 6 20 -5 -3 -8 13 -9 35 0 23 4 39 11 39 6 0 4 5 -4
10 -12 7 -13 13 -3 28 9 15 9 22 0 31 -9 9 -8 14 3 21 11 7 12 10 2 10 -8 0
-12 6 -9 13 2 6 0 20 -5 31 -7 13 -7 16 1 12 15 -10 14 0 -6 37 -13 27 -14 30
-1 19 13 -10 15 -9 10 13 -2 14 -9 22 -15 18 -6 -4 -7 -1 -2 8 11 17 14 49 5
49 -3 0 -5 15 -5 33 1 18 -6 37 -14 45 -14 10 -13 11 4 6 18 -5 19 -4 3 8 -15
13 -15 15 0 26 9 7 12 10 5 7 -6 -3 -14 -1 -18 5 -3 5 0 10 7 10 9 0 9 3 -2
10 -13 9 -13 10 0 10 11 0 12 2 3 8 -7 5 -14 20 -15 35 -1 15 -6 27 -11 27 -5
0 -4 7 3 15 10 12 9 16 -5 21 -13 5 -14 9 -3 15 9 6 10 9 1 9 -7 0 -10 7 -7
15 4 8 1 15 -6 15 -9 0 -9 4 1 17 8 9 9 14 3 10 -7 -4 -15 0 -18 9 -4 10 -2
13 7 8 6 -4 3 3 -8 16 -11 13 -14 20 -7 16 6 -4 12 -2 12 3 0 6 -4 11 -10 11
-5 0 -10 9 -10 20 0 11 -6 20 -12 20 -9 0 -8 4 2 10 12 8 12 10 1 10 -10 0
-11 3 -2 14 9 11 9 16 0 22 -8 5 -9 3 -4 -6 5 -8 4 -11 -2 -7 -6 4 -13 16 -16
27 -3 12 -1 18 5 14 6 -4 2 5 -7 19 -9 15 -14 31 -11 36 4 5 -1 14 -10 19 -11
6 -15 16 -11 26 4 9 3 15 -2 12 -5 -3 -12 1 -15 10 -4 10 -2 13 7 8 9 -6 9 -5
0 8 -7 8 -9 19 -5 23 4 5 1 5 -5 1 -12 -6 -18 5 -14 27 0 4 -4 7 -11 7 -6 0
-8 3 -5 7 4 3 -1 15 -10 25 -16 18 -16 18 2 12 18 -7 18 -7 -1 13 -10 11 -22
18 -25 17 -3 -2 -5 8 -3 21 1 16 -3 25 -12 25 -8 0 -13 3 -13 8 4 21 -2 32
-13 26 -9 -5 -9 -2 1 9 11 14 11 17 0 18 -8 1 -18 1 -23 0 -5 -1 -3 6 5 15 9
12 9 15 2 10 -9 -5 -13 -1 -13 11 0 10 -9 25 -20 33 -14 10 -16 16 -7 22 8 5
6 8 -7 8 -11 0 -17 3 -13 6 3 3 -3 15 -14 27 -10 11 -19 29 -19 39 0 11 -4 17
-9 14 -5 -3 -12 1 -15 10 -4 10 -2 13 6 8 7 -4 8 -3 4 4 -4 7 -13 12 -21 12
-8 0 -17 5 -21 12 -5 8 -1 9 12 5 13 -5 10 0 -8 16 -16 12 -28 27 -28 31 0 5
-8 16 -18 25 -9 9 -23 28 -31 43 -8 15 -18 25 -23 22 -4 -3 -8 2 -8 10 0 9 -4
16 -9 16 -5 0 -11 9 -14 20 -3 11 -11 20 -19 20 -7 0 -18 10 -23 23 -6 12 -17
21 -26 21 -12 -1 -15 5 -12 20 4 17 3 18 -6 6 -9 -12 -11 -11 -11 9 0 13 -3
22 -6 18 -8 -8 -34 18 -34 34 0 7 -3 9 -6 6 -10 -9 -45 13 -39 24 4 5 -7 17
-24 27 -17 9 -31 25 -31 35 0 9 -7 17 -15 17 -19 0 -56 31 -49 41 2 4 -4 6
-15 4 -15 -3 -19 1 -16 17 4 17 2 18 -11 7 -8 -7 -14 -8 -12 -3 2 5 -1 11 -7
13 -16 7 -35 29 -35 39 0 6 -7 13 -16 16 -15 6 -15 4 -3 -11 8 -10 1 -7 -18 7
-32 23 -46 39 -21 24 7 -4 8 -3 4 5 -4 6 -11 9 -15 6 -5 -2 -21 7 -36 21 -15
14 -34 23 -41 20 -8 -3 -14 1 -14 8 0 7 -8 20 -17 27 -11 10 -14 10 -9 2 4 -7
2 -13 -3 -13 -6 0 -11 7 -11 16 0 8 -5 12 -10 9 -6 -3 -13 1 -16 9 -3 9 -10
16 -16 16 -5 0 -6 -6 -3 -12 4 -7 0 -5 -8 4 -8 10 -17 15 -20 11 -6 -5 -11 10
-9 28 1 3 -5 6 -13 6 -7 0 -12 -5 -11 -11 2 -6 1 -8 -1 -3 -3 4 -12 7 -21 7
-14 0 -15 2 -3 9 11 7 5 11 -22 16 -21 4 -42 15 -47 24 -8 13 -9 13 -10 1 0
-12 -3 -11 -11 3 -5 9 -19 17 -30 17 -11 0 -17 5 -14 10 3 6 2 10 -4 10 -5 0
-12 -6 -14 -12 -3 -8 -6 -6 -6 4 -1 10 -4 17 -8 17 -22 -4 -43 3 -58 17 -9 9
-28 18 -44 19 -15 1 -36 7 -48 13 -11 6 -23 8 -27 5 -3 -3 -6 2 -6 13 0 16 -2
17 -10 4 -5 -8 -10 -10 -10 -3 0 6 -9 9 -22 6 -19 -4 -20 -3 -8 7 12 10 11 11
-7 7 -13 -3 -23 -1 -23 5 0 5 -5 6 -11 2 -6 -3 -22 -1 -35 5 -13 6 -35 16 -48
22 -13 6 -29 8 -35 5 -6 -4 -11 -1 -11 6 0 9 -3 9 -10 -2 -7 -11 -10 -11 -10
-2 0 7 -4 11 -9 7 -5 -3 -12 -1 -16 4 -3 5 -13 10 -23 9 -9 0 -27 3 -39 5 -14
4 -23 1 -24 -6 0 -7 -5 -1 -10 12 -7 17 -12 21 -22 13 -8 -7 -18 -7 -27 -2 -8
5 -18 6 -23 3 -5 -3 -13 1 -18 8 -7 11 -9 11 -9 1 0 -8 -5 -10 -12 -5 -18 11
-39 13 -33 3 7 -11 -22 -7 -32 5 -4 4 -2 5 6 0 10 -6 12 -4 7 4 -6 9 -11 9
-22 0 -11 -9 -14 -8 -14 2 0 11 -2 11 -10 -1 -6 -10 -10 -11 -10 -2 0 6 -5 12
-11 12 -5 0 -7 -6 -3 -12 4 -7 -2 -5 -13 5 -16 14 -23 15 -29 6 -5 -8 -3 -10
6 -4 8 5 11 4 6 -3 -8 -13 -36 -5 -36 11 0 6 -6 3 -13 -8 -11 -14 -16 -15 -22
-5 -6 9 -4 11 5 5 9 -5 11 -4 6 4 -5 8 -12 9 -19 2 -18 -14 -29 -14 -38 1 -7
10 -9 8 -9 -7 -1 -19 -1 -19 -11 -2 -6 10 -15 14 -22 10 -16 -10 -88 -12 -82
-3 3 5 -3 7 -12 5 -10 -2 -18 -4 -18 -5 0 -7 -72 -5 -82 2 -7 6 -14 4 -19 -3z
m-1901 -1154 c-3 -9 -8 -14 -10 -11 -3 3 -2 9 2 15 9 16 15 13 8 -4z m1661
-151 c3 -8 2 -12 -4 -9 -6 3 -10 10 -10 16 0 14 7 11 14 -7z m900 -16 c-3 -4
-9 -8 -15 -8 -5 0 -9 4 -9 8 0 5 7 9 15 9 8 0 12 -4 9 -9z m-1034 -192 c0 -3
-4 -8 -10 -11 -5 -3 -10 -1 -10 4 0 6 5 11 10 11 6 0 10 -2 10 -4z m1261 -233
c13 -16 12 -17 -3 -4 -17 13 -22 21 -14 21 2 0 10 -8 17 -17z m-451 -1033 c0
-5 -5 -10 -11 -10 -5 0 -7 5 -4 10 3 6 8 10 11 10 2 0 4 -4 4 -10z"/>
<path d="M1425 2020 c-3 -5 -2 -10 4 -10 5 0 13 5 16 10 3 6 2 10 -4 10 -5 0
-13 -4 -16 -10z"/>
<path d="M4666 953 c-6 -14 -5 -15 5 -6 7 7 10 15 7 18 -3 3 -9 -2 -12 -12z"/>
</g>
</svg>
